# xmcd
#
# Track frame offsets:
#	187
#	17210
#	31040
#	46955
#	47542
#	48075
#	48667
#	49310
#	49885
#
# Disc length: 670 seconds
#
# Revision: 1
# Processed by: cddbd v1.5.2PL0 Copyright (c) Steve Scherf et al.
# Submitted via: EZCDAudioConverter 9.1.1.1
#
DISCID=71029c09
DTITLE=Terry McBride and The Ride - High Hopes And Empty Pockets
DYEAR=1994
DGENRE=Country
TTITLE0=High Hopes And Empty Pockets
TTITLE1=No More Cryin'
TTITLE2=Been There
TTITLE3=Liner- Two Steppin'
TTITLE4=Liner- Line Dancin'
TTITLE5=Liner- Goodnight
TTITLE6=Liner- Drive Safe
TTITLE7=Liner- Slow Things Down
TTITLE8=Liner- Another Hit
EXTD=
EXTT0=
EXTT1=
EXTT2=
EXTT3=
EXTT4=
EXTT5=
EXTT6=
EXTT7=
EXTT8=
PLAYORDER=
